# xmcd
#
# Track frame offsets:
#	150
#	16715
#	31170
#	44365
#	55605
#	70980
#	84970
#	103447
#	117412
#	132307
#	144192
#
# Disc length: 2118 seconds
#
# Revision: 2
# Processed by: cddbd v1.5.2PL0 Copyright (c) Steve Scherf et al.
# Submitted via: audiograbber 1.83.01
#
DISCID=8c08440b
DTITLE=Chicanos - Tesoros De Coleccion 3.1
DYEAR=1975
DGENRE=Latin
TTITLE0=Puente De Piedra
TTITLE1=Nochecita
TTITLE2=Mi Ultimo Fracaso
TTITLE3=Tus Manos
TTITLE4=Ay!
TTITLE5=Esta Noche Corazon
TTITLE6=Cuesta Abajo
TTITLE7=Ruega Por Nosotros
TTITLE8=Camino Verde
TTITLE9=El Andariego
TTITLE10=Chacha Linda
EXTD=MS®
EXTT0=MS®
EXTT1=
EXTT2=
EXTT3=
EXTT4=
EXTT5=
EXTT6=
EXTT7=
EXTT8=
EXTT9=
EXTT10=
PLAYORDER=
